<?xml version="1.0" standalone="no"?>
<!DOCTYPE svg PUBLIC "-//W3C//DTD SVG 20010904//EN"
 "http://www.w3.org/TR/2001/REC-SVG-20010904/DTD/svg10.dtd">
<svg version="1.0" xmlns="http://www.w3.org/2000/svg"
 width="817.000000pt" height="474.000000pt" viewBox="0 0 817.000000 474.000000"
 preserveAspectRatio="xMidYMid meet">

<g transform="translate(0.000000,474.000000) scale(0.100000,-0.100000)"
fill="#ff007e" stroke="none">
<path d="M2755 4336 c-128 -34 -289 -121 -430 -233 -16 -13 -39 -31 -50 -39
-11 -8 -123 -100 -249 -205 -282 -235 -394 -322 -556 -434 -19 -13 -55 -39
-80 -57 -63 -45 -487 -327 -546 -363 -126 -76 -251 -148 -322 -186 l-34 -18
119 -59 c208 -105 400 -221 643 -389 94 -64 293 -251 426 -399 56 -61 234
-273 357 -424 182 -223 150 -187 334 -379 169 -175 296 -283 468 -398 112 -75
316 -193 333 -193 4 0 21 -7 37 -16 115 -60 386 -130 569 -146 173 -15 667 -5
776 16 266 51 464 127 700 271 308 187 548 406 860 789 58 70 139 169 180 220
211 258 378 435 545 575 87 73 85 71 230 167 95 63 116 77 211 137 58 36 297
166 368 200 l58 28 -33 18 c-95 50 -264 148 -359 209 -71 46 -483 320 -524
350 -17 12 -47 33 -66 47 -226 161 -253 182 -489 379 -462 388 -626 496 -807
533 -124 25 -159 15 -469 -137 -213 -105 -279 -131 -445 -175 -172 -45 -368
-62 -552 -46 -268 24 -418 71 -753 238 -236 118 -345 147 -450 119z m1030
-1517 c245 -79 382 -79 625 3 158 53 205 43 442 -89 180 -99 409 -207 512
-240 29 -9 48 -33 27 -33 -28 0 -227 -86 -336 -146 -66 -36 -160 -83 -210
-106 -146 -65 -258 -118 -285 -132 -14 -8 -70 -28 -125 -46 -95 -32 -109 -33
-290 -38 -258 -6 -374 15 -541 96 -32 16 -130 62 -218 102 -87 40 -206 100
-265 132 -97 53 -295 138 -322 138 -28 0 3 25 56 44 101 37 353 157 485 229
145 81 199 106 255 117 50 10 77 6 190 -31z"/>
</g>
</svg>
