<?xml version="1.0" encoding="UTF-8"?>
<svg version="1.1" xmlns="http://www.w3.org/2000/svg" width="392" height="392">
<path d="M0 0 C2.93071141 1.3572557 5.63128445 2.86232533 8.359375 4.58984375 C12.07092932 6.57190161 15.23917313 7.41210842 19.38671875 6.44140625 C20.14597656 6.15136719 20.90523437 5.86132812 21.6875 5.5625 C27.16938604 3.79840434 32.28061902 2.92071117 38 4 C41.08273664 5.59250376 43.66791882 7.42067812 46 10 C46 10.66 46 11.32 46 12 C47.175625 12.4640625 47.175625 12.4640625 48.375 12.9375 C51 14 51 14 53 15 C54.37935952 15.04846786 55.76114512 15.03709942 57.140625 14.9921875 C57.96433594 14.97542969 58.78804688 14.95867188 59.63671875 14.94140625 C61.36350922 14.89752667 63.09011585 14.84558955 64.81640625 14.78515625 C69.9910805 14.6966315 73.59006396 14.97861525 78 18 C80.4140625 20.59375 80.4140625 20.59375 82.625 23.5 C86.02794384 27.94173723 88.61007264 31.20335755 94 33 C95.93622036 33.12572859 97.87407947 33.22716073 99.8125 33.3125 C104.9544343 33.72186992 108.1038144 34.39602832 112 38 C114.11716606 40.69457498 115.70706075 43.32677233 117.07421875 46.46875 C119.480991 51.90597636 121.22321341 54.99078414 126.81640625 57.28515625 C128.31630238 57.7761777 129.8249473 58.24101131 131.33984375 58.68359375 C135.63920653 59.94979543 139.16172627 61.01693279 141.953125 64.79296875 C143.99462181 69.09687061 144.8977327 73.80851874 145.91015625 78.44140625 C147.40230717 83.31362664 149.2753967 85.9677742 153.65625 88.58984375 C155.55107674 89.48780422 157.4469114 90.38364095 159.34375 91.27734375 C162.7267145 93.47129573 164.16452817 95.40959668 166 99 C166.36098718 101.77596346 166.55989855 104.2320579 166.5625 107 C166.59768026 112.34739899 167.05533984 116.389541 170 121 C172.12040224 123.12618657 172.12040224 123.12618657 174.5 124.9375 C178.61858063 128.47921103 180.69696005 130.69476591 182 136 C181.9666969 139.06388562 181.53593315 141.98732725 181 145 C179.86782281 151.42361587 179.6533382 156.4991377 183.4375 162.14453125 C184.48894967 163.54730666 185.56206527 164.93420836 186.66015625 166.30078125 C190.07831839 170.63576822 189.55431437 175.7088174 189 181 C188.10546875 183.15234375 188.10546875 183.15234375 187 185.0625 C184.38690136 189.62609013 184.13783578 193.84359478 185 199 C185.87329194 201.00710833 185.87329194 201.00710833 187 202.875 C189.89080517 208.0513154 190.13753726 213.23052999 189 219 C187.45502117 221.85720761 185.70146641 224.27779169 183.6953125 226.828125 C180.56871977 230.83362168 179.89468731 233.73624776 180.3125 238.75 C180.53255172 240.16811108 180.7624521 241.58471459 181 243 C182.37875159 251.64731577 182.37875159 251.64731577 181.125 256.125 C178.54094177 259.62107878 175.5422154 262.16622768 172.15625 264.875 C167.91372547 269.05603866 166.72804626 273.02689876 166.57617188 278.921875 C166.56705742 280.30727148 166.56184897 281.69269916 166.56054688 283.078125 C166.41902927 288.19227829 165.25612158 291.07536496 162 295 C160.0703125 296.50390625 160.0703125 296.50390625 158.125 297.5625 C151.62136131 301.37748359 147.4940278 304.51791661 145 312 C144.55684442 314.22743987 144.14209636 316.44304468 143.8203125 318.69140625 C142.60847243 322.10187043 140.67854361 324.62543166 138 327 C134.85085055 328.47873104 131.82371023 329.57536424 128.52734375 330.6328125 C122.3137435 332.81698713 119.68609683 335.92024589 116.55859375 341.6328125 C116.18863281 342.45523437 115.81867188 343.27765625 115.4375 344.125 C113.7699707 347.82933844 112.27817651 350.52651591 109 353 C106.24531833 353.7999492 103.46806557 354.15316554 100.625 354.5 C94.76612482 355.22218774 90.69858342 356.10277848 86 360 C84.10039015 362.46404311 82.5320135 365.01032113 80.90625 367.66015625 C78.47331483 370.64648447 76.63439732 371.70351908 73 373 C69.23130267 373.32979458 65.49213594 373.07154141 61.72070312 372.8828125 C55.45992358 372.69229005 50.87862391 373.52394227 45.9609375 377.75390625 C45.43757812 378.35074219 44.91421875 378.94757813 44.375 379.5625 C39.73529188 384.45996968 35.65163074 385.21745521 29 386 C29 385.34 29 384.68 29 384 C28.236875 383.855625 27.47375 383.71125 26.6875 383.5625 C24 383 24 383 21 382 C14.11243291 381.54082886 9.42970527 382.71352982 3.5625 386.625 C-0.57405543 388.84461511 -4.60288453 389.56556263 -9.15234375 388.4921875 C-12.93066969 387.15534965 -15.84380784 385.47986527 -19 383 C-25.24778638 380.54551249 -31.15261938 381.88238273 -37.0546875 384.32421875 C-41.05395074 385.71352104 -44.70089632 385.39275227 -48.6875 384.1875 C-51.03942174 382.97975641 -53.02267734 381.75762014 -55 380 C-55 379.34 -55 378.68 -55 378 C-55.66 378 -56.32 378 -57 378 C-57.433125 377.54625 -57.86625 377.0925 -58.3125 376.625 C-61.62678919 373.43346226 -64.96362471 372.86985819 -69.43359375 372.9453125 C-71.94546182 373.02088731 -74.45315612 373.12579915 -76.96289062 373.25390625 C-82.52093512 373.40329243 -85.65414756 372.82771802 -90 369 C-91.89960985 366.53595689 -93.4679865 363.98967887 -95.09375 361.33984375 C-98.23492506 357.4841801 -101.60414857 356.23951542 -106.4375 355.41015625 C-107.613125 355.29542969 -108.78875 355.18070312 -110 355.0625 C-115.51426327 354.3536063 -118.94494696 353.83586099 -123 350 C-126.18358814 345.87312649 -127.48668932 340.92630925 -129 336 C-129.66 336 -130.32 336 -131 336 C-131.495 335.401875 -131.99 334.80375 -132.5 334.1875 C-135.14557413 331.87262264 -136.42397284 331.50370298 -139.75 330.6875 C-145.39852216 329.11058613 -149.44494898 326.73721256 -153 322 C-154.45572772 318.40503083 -155.26968129 314.80110761 -156 311 C-157.2817777 305.67569264 -159.42989763 302.93649121 -164 300 C-165.36601811 299.33537965 -166.74142591 298.68975467 -168.125 298.0625 C-172.15655713 296.12766092 -174.02361548 294.1108798 -176 290 C-176.80816071 285.82450298 -177.02022918 282.10278269 -176.875 277.875 C-177.0090387 273.71980026 -177.96502391 271.56120815 -180 268 C-180 267.34 -180 266.68 -180 266 C-180.66 266 -181.32 266 -182 266 C-182 265.34 -182 264.68 -182 264 C-182.763125 263.7525 -183.52625 263.505 -184.3125 263.25 C-187.26080945 261.87869328 -188.35834532 260.7648921 -190 258 C-190 257.34 -190 256.68 -190 256 C-190.66 255.67 -191.32 255.34 -192 255 C-192.02712066 253.56260487 -192.04645067 252.12506137 -192.0625 250.6875 C-192.07410156 249.88699219 -192.08570313 249.08648437 -192.09765625 248.26171875 C-192 246 -192 246 -191 243 C-190.8809314 241.21120198 -190.82477887 239.4177144 -190.8125 237.625 C-190.79832031 236.68914062 -190.78414062 235.75328125 -190.76953125 234.7890625 C-191.10239869 230.76080224 -192.0157754 227.95247542 -194.9375 225.125 C-198.09301953 221.87385867 -199.88297022 218.46212645 -200.1015625 213.86328125 C-199.79068649 209.62204429 -198.78056706 206.26186416 -196.9375 202.4375 C-194.78207579 197.88979177 -194.36129269 195.02982004 -195 190 C-195.91245988 187.84863985 -196.93034198 185.86706417 -198.125 183.859375 C-199 182 -199 182 -199 178 C-199.66 177.67 -200.32 177.34 -201 177 C-199.75021846 171.65005797 -198.4462772 167.18161651 -194.9375 162.875 C-191.92393326 159.12495062 -190.23853863 155.86251817 -190 151 C-190.34730802 148.66576703 -190.87284748 146.44568803 -191.47265625 144.1640625 C-192.52333336 139.85239495 -192.40539252 136.27022989 -191.0625 132.0625 C-189.06462438 129.09595742 -187.20851698 127.35262818 -184.5 125.0625 C-180.39231644 121.5492617 -178.42418336 119.22200564 -177 114 C-176.61813652 109.33366553 -176.61813652 109.33366553 -178 105 C-176.27166466 98.26545196 -173.78489266 93.81802915 -168 90 C-166.989375 89.525625 -165.97875 89.05125 -164.9375 88.5625 C-159.85527323 85.85918789 -157.65771769 83.11624433 -155.9765625 77.70703125 C-155.65429688 76.48371094 -155.33203125 75.26039062 -155 74 C-152.52645154 64.72174904 -152.52645154 64.72174904 -148 61 C-145.06483411 59.73896577 -142.06651418 58.87924831 -139 58 C-133.2412027 55.67433186 -129.57215528 52.40233605 -126.9765625 46.78515625 C-126.65429688 46.01042969 -126.33203125 45.23570313 -126 44.4375 C-124.32544829 40.41721999 -122.41684588 37.80356585 -119 35 C-116.06857235 34.02285745 -113.81409333 33.80473732 -110.75 33.625 C-104.30750547 33.05554468 -100.0109484 32.15809097 -95.4375 27.25 C-94.61641099 26.17316195 -93.80440816 25.08935525 -93 24 C-92.01448868 22.73854551 -91.01409655 21.48859121 -90 20.25 C-89.54625 19.67765625 -89.0925 19.1053125 -88.625 18.515625 C-84.66362444 14.82088049 -80.58412381 14.83742532 -75.45507812 14.97070312 C-73.86377174 15.03175733 -72.27261477 15.09684284 -70.68164062 15.16601562 C-63.4881026 15.34058684 -59.06475919 13.29219847 -53.75 8.375 C-49.85237453 4.79462311 -47.97211785 3.84833859 -42.625 3.8125 C-41.19027344 3.79123047 -41.19027344 3.79123047 -39.7265625 3.76953125 C-36.90074059 4.00839012 -35.4835132 4.73151283 -33 6 C-26.31859928 7.03248986 -21.19113615 6.50788297 -15.375 3 C-10.10102004 -0.17345499 -6.09161935 -1.44816104 0 0 Z M-11.74829102 49.27001953 C-16.07912446 50.67403037 -20.61385494 50.31473619 -25.125 50.3125 C-33.85842434 50.48512461 -39.91368768 51.52903176 -47.72265625 55.5234375 C-51.46699867 57.21039988 -54.91051862 57.86847143 -58.9375 58.5 C-64.43315683 59.46415032 -67.54189079 60.47675323 -71.4140625 64.45703125 C-75.06923478 68.01317177 -80.00521151 70.210156 -84.703125 72.0703125 C-91.45292588 74.76646201 -95.29491253 77.99227029 -99.94140625 83.56640625 C-103.42723141 87.68722043 -107.26208307 90.9869896 -111.921875 93.703125 C-115.66707383 96.49776575 -117.36177591 99.33171669 -119.5625 103.375 C-122.88643904 109.34500858 -126.15973629 114.71393409 -131.5625 119.0625 C-134.77026376 122.92826658 -135.56065933 126.77144983 -136.89453125 131.5625 C-138.93129912 137.89591245 -142.32513962 143.48770944 -146 149 C-146.36350386 151.67723481 -146.64747211 154.31161671 -146.875 157 C-147.36884391 162.15924167 -147.96239233 166.50922077 -150.1875 171.25 C-152.77648316 177.47498157 -151.96723333 183.58061713 -151.48242188 190.15673828 C-151.10572718 195.27594606 -151.05079796 200.00689513 -151.6875 205.125 C-152.24046399 210.53713507 -151.17220508 213.91433335 -149.03515625 218.84765625 C-147.69456817 222.93012635 -147.44813272 226.85956127 -147.125 231.125 C-146.58551572 237.52875692 -145.7137598 241.73724944 -141.58984375 246.859375 C-137.78086381 251.98792785 -135.5306695 258.55075616 -134.1875 264.75 C-132.67964966 268.87674831 -130.33099742 270.79816786 -127.1640625 273.7578125 C-122.65875229 278.42576929 -119.07614132 284.20203258 -116.75 290.25 C-114.26008751 294.16271963 -110.79374339 295.78833067 -106.859375 298.140625 C-101.80203078 301.42928053 -97.66222711 305.64637238 -94.1875 310.56640625 C-91.499833 313.55643578 -89.19211614 314.42392129 -85.4375 315.8125 C-77.70555997 318.84263957 -70.90708697 323.09291303 -65 329 C-62.53772553 329.4818771 -60.10444771 329.88556 -57.625 330.25 C-52.1289852 331.13477511 -47.86591452 332.33899632 -43 335.1875 C-37.59952674 338.17312749 -33.07613429 338.37166904 -27.08227539 338.09228516 C-21.14765071 337.84645969 -15.93018467 338.88920582 -10.18359375 340.44140625 C-4.95218055 341.35931065 -0.17503955 340.05612697 4.9375 338.9375 C9.00240304 338.15020422 12.73565083 337.99369669 16.87133789 338.16699219 C24.38140771 338.46870833 29.30519779 337.35794392 35.859375 333.5078125 C39.65133539 331.68729421 43.11971202 331.14392987 47.25 330.5625 C53.2275219 329.66330655 56.68743901 328.31814461 60.875 323.90625 C66.18645349 319.14156378 73.70511901 316.46620168 80.16015625 313.59375 C83.29857756 311.83243515 85.03158807 310.01630374 87.3125 307.25 C92.21367603 301.5801741 97.66452189 297.29777381 103.8125 293.0625 C106.38233284 290.63951475 107.44409271 288.31378611 108.9140625 285.14453125 C111.55460514 279.92993444 115.13963103 275.70655356 119.5625 271.9375 C123.4457046 268.21609559 124.65722101 263.78565705 126.14990234 258.78027344 C128.18390338 252.03604245 130.95020033 245.04979967 136 240 C136.39609957 237.13341273 136.69828931 234.31723978 136.9375 231.4375 C137.56225415 224.88113479 138.6364972 219.16445759 141 213 C142.13229786 208.28209224 141.6931095 204.77475435 141 200 C140.78038783 194.24941463 140.85256174 188.68682813 141.75 183 C142.34414094 177.86434338 140.84476294 174.15921907 139.02734375 169.3984375 C137.82341778 165.41586869 137.54712356 161.69054272 137.25 157.5625 C136.62781191 150.08215875 134.29102039 145.36954024 129.96875 139.14453125 C127.30933963 134.89686191 126.06302232 130.59338813 124.7890625 125.77734375 C123.69986841 121.94359624 122.84948286 119.66581089 119.6875 117.1875 C117.29700301 115.24174664 116.01111622 113.74766942 114.3125 111.25 C113.549375 110.1775 112.78625 109.105 112 108 C111.34 108 110.68 108 110 108 C109.5978125 106.700625 109.5978125 106.700625 109.1875 105.375 C106.81227356 98.62435644 104.43182917 95.13756992 98.375 91.3125 C93.48140453 88.06408949 89.89247948 84.98523855 86.375 80.1875 C82.50505835 75.07313473 78.93910898 73.15105723 72.9453125 71.05859375 C69.27554803 69.73962005 66.08306191 67.90658447 62.7421875 65.91796875 C61.03330473 64.84461495 61.03330473 64.84461495 59 65 C58.67 64.01 58.34 63.02 58 62 C57.34 62 56.68 62 56 62 C56 61.34 56 60.68 56 60 C54.78183594 59.74605469 53.56367188 59.49210937 52.30859375 59.23046875 C50.68481575 58.88318675 49.06112225 58.53550945 47.4375 58.1875 C46.63763672 58.02185547 45.83777344 57.85621094 45.01367188 57.68554688 C39.32900843 56.45580336 34.11561545 54.91978794 29.1171875 51.83984375 C25.5820848 50.43754286 21.89346574 50.6501301 18.125 50.5625 C10.76036862 50.31787924 4.26715804 49.41226563 -2.82421875 47.328125 C-6.41514195 46.95710711 -8.47824787 47.88532594 -11.74829102 49.27001953 Z " fill="#8A52FC" transform="translate(202,2)"/>
<path d="M0 0 C3.40312738 1.05875074 6.01353231 2.00902154 9 4 C11.46857913 4.06719209 13.85128288 4.03996605 16.3125 3.9375 C23.1510804 3.76838639 29.17655406 4.64792877 35.81640625 6.44140625 C41.09325642 7.36728303 45.95678125 6.03108861 51.125 4.9375 C57.42441509 3.75471692 63.6125352 3.81721086 70 4 C70 4.33 70 4.66 70 5 C68.71802734 5.09087891 68.71802734 5.09087891 67.41015625 5.18359375 C66.30542969 5.26738281 65.20070313 5.35117187 64.0625 5.4375 C62.96035156 5.51871094 61.85820312 5.59992188 60.72265625 5.68359375 C58.08890097 5.70418084 58.08890097 5.70418084 57 7 C54.51777659 7.28484531 52.03531145 7.44806553 49.54296875 7.62109375 C47.01490599 7.84342382 47.01490599 7.84342382 45.10375977 9.06616211 C42.54707993 10.20104668 41.4799509 9.98836092 38.796875 9.3203125 C37.98831055 9.13307617 37.17974609 8.94583984 36.34667969 8.75292969 C35.48977539 8.54571289 34.63287109 8.33849609 33.75 8.125 C24.64892805 6.08883927 16.3101688 5.53189095 7 6 C7 5.34 7 4.68 7 4 C6.030625 3.71125 5.06125 3.4225 4.0625 3.125 C1 2 1 2 0 0 Z " fill="#815BD7" transform="translate(156,335)"/>
<path d="M0 0 C0.99 0.33 1.98 0.66 3 1 C3.99 1 4.98 1 6 1 C5.21625 1.886875 4.4325 2.77375 3.625 3.6875 C0.91365506 6.9716643 -0.61021401 9.86015449 -1.3828125 14.1015625 C-2.43154786 19.80286928 -3.75740407 22.95943245 -8 27 C-10.3125 27.875 -10.3125 27.875 -12 28 C-12 27.34 -12 26.68 -12 26 C-11.236875 25.566875 -10.47375 25.13375 -9.6875 24.6875 C-6.50296233 22.68790658 -5.49672447 21.44246628 -4 18 C-3.64258876 15.76302612 -3.43076962 13.54272454 -3.24609375 11.28515625 C-2.8200829 7.32934118 -1.78421804 3.56843608 0 0 Z " fill="#8259DF" transform="translate(348,302)"/>
<path d="M0 0 C-2.54549797 1.69699865 -4.05940086 2.39546018 -6.875 3.25 C-14.86054992 6.21355874 -17.62400266 13.73083125 -21 21 C-22 19 -22 19 -21.44140625 16.8359375 C-21.00634766 15.61777344 -21.00634766 15.61777344 -20.5625 14.375 C-20.27503906 13.55773437 -19.98757813 12.74046875 -19.69140625 11.8984375 C-19.46324219 11.27195312 -19.23507812 10.64546875 -19 10 C-18.34 10 -17.68 10 -17 10 C-16.73445313 9.40703125 -16.46890625 8.8140625 -16.1953125 8.203125 C-12.45014099 1.30025986 -7.55419172 -0.79517808 0 0 Z " fill="#825ADD" transform="translate(336,330)"/>
<path d="M0 0 C0.66 0.33 1.32 0.66 2 1 C0.26243952 6.73394959 -3.68156308 10.93771997 -8.0859375 14.85546875 C-10.37906861 17.42471156 -10.95718063 19.42015865 -11.75 22.75 C-11.99234375 23.73484375 -12.2346875 24.7196875 -12.484375 25.734375 C-12.73960938 26.85585937 -12.73960938 26.85585937 -13 28 C-14.0219601 24.81815261 -13.94954615 22.67756672 -13.1875 19.4375 C-12.93033203 18.29087891 -12.93033203 18.29087891 -12.66796875 17.12109375 C-12 15 -12 15 -10 12 C-9.34 11.690625 -8.68 11.38125 -8 11.0625 C-5.50998548 9.73967979 -5.17209376 8.50046668 -4 6 C-3.01 5.34 -2.02 4.68 -1 4 C-0.27617533 1.94074861 -0.27617533 1.94074861 0 0 Z " fill="#825BDA" transform="translate(79,107)"/>
<path d="M0 0 C0 0.99 0 1.98 0 3 C-1.051875 3.391875 -2.10375 3.78375 -3.1875 4.1875 C-6.11012469 5.40915712 -7.18382984 6.19797059 -9.4375 8.625 C-12.95939317 11.88919367 -15.28287348 11.6855249 -20 12 C-20.33 12.33 -20.66 12.66 -21 13 C-23.67058851 13.14115161 -26.32432238 13.04247107 -29 13 C-25.73386877 11.09475678 -22.98741395 10.68527315 -19.25 10.3125 C-12.66497278 9.32353987 -9.53153264 6.62980684 -5 2 C-2 0 -2 0 0 0 Z " fill="#815ADA" transform="translate(270,321)"/>
<path d="M0 0 C0.66 0.33 1.32 0.66 2 1 C-2.96293002 2.91551685 -7.86975495 4.57493193 -13 6 C-14.6396875 6.5878125 -14.6396875 6.5878125 -16.3125 7.1875 C-19 8 -19 8 -21 7 C-16.23576375 1.90719574 -12.29364673 1.7855433 -5.59375 1.28125 C-2.88853697 1.08068739 -2.88853697 1.08068739 0 0 Z " fill="#8359E2" transform="translate(100,34)"/>
<path d="M0 0 C3.10258071 3.10258071 2.9716669 6.72878575 3 11 C2.67 12.11375 2.34 13.2275 2 14.375 C0.61349931 19.40106502 1.31559738 23.88547772 2 29 C1.34 28.67 0.68 28.34 0 28 C-0.6328125 25.27734375 -0.6328125 25.27734375 -1.125 21.9375 C-1.37636719 20.28041016 -1.37636719 20.28041016 -1.6328125 18.58984375 C-1.75398438 17.73519531 -1.87515625 16.88054687 -2 16 C-1.34 16 -0.68 16 0 16 C-0.020625 15.0925 -0.04125 14.185 -0.0625 13.25 C-0.01073123 10.5580237 0.33569365 8.56232449 1 6 C0.67 5.67 0.34 5.34 0 5 C-0.04063832 3.33382885 -0.042721 1.66611905 0 0 Z " fill="#825ADD" transform="translate(381,133)"/>
<path d="M0 0 C2.91870751 1.45935375 3.6267451 3.05223734 5 6 C5.0806937 8.68306536 5.01731874 11.04370204 4.75 13.6875 C4.69207275 14.39068359 4.63414551 15.09386719 4.57446289 15.81835938 C4.40029738 17.88093272 4.20337469 19.94012692 4 22 C3.90074219 23.07894531 3.80148437 24.15789062 3.69921875 25.26953125 C3.48393897 27.51550987 3.25329787 29.7580444 3 32 C2.67 32 2.34 32 2 32 C1.91072284 26.22674372 1.84919367 20.59735192 2.6875 14.875 C3.33640291 9.47332173 1.89258922 5.0255194 0 0 Z " fill="#815BD7" transform="translate(340,170)"/>
<path d="M0 0 C0.81045614 2.31413264 1.2198895 3.49392266 0.22265625 5.7890625 C-0.16019531 6.39492187 -0.54304688 7.00078125 -0.9375 7.625 C-4.12443864 13.53572357 -3.75119947 19.27690191 -2 25.625 C-1.67 26.40875 -1.34 27.1925 -1 28 C-1.66 28 -2.32 28 -3 28 C-6.16050341 22.77884836 -5.58511053 16.8924072 -5 11 C-3.99899191 7.77503277 -2.66839584 4.92806821 -1 2 C-0.67 1.34 -0.34 0.68 0 0 Z " fill="#825ADC" transform="translate(390,179)"/>
<path d="M0 0 C0.99 0.33 1.98 0.66 3 1 C-2.13636921 6.40849473 -6.63997133 8.14108317 -14 9 C-14 8.34 -14 7.68 -14 7 C-15.65 6.67 -17.3 6.34 -19 6 C-16.35061466 5.08290508 -14.92673821 5.01433383 -12.125 5.5625 C-8.39751899 6.08434734 -6.39512045 5.58438954 -3 4 C-1.12689112 2.006748 -1.12689112 2.006748 0 0 Z " fill="#825ADD" transform="translate(245,379)"/>
<path d="M0 0 C2.0625 0.4375 2.0625 0.4375 4 1 C4.33 2.65 4.66 4.3 5 6 C10.94 7.485 10.94 7.485 17 9 C17 9.33 17 9.66 17 10 C12.28809898 10.37695208 8.92629407 10.46314703 4.625 8.3125 C2.03758184 6.03310781 0.53402683 4.06805366 -1 1 C-0.67 0.67 -0.34 0.34 0 0 Z " fill="#8259DE" transform="translate(77,346)"/>
<path d="M0 0 C1.77119803 0.14133499 3.54195287 0.28823208 5.3125 0.4375 C6.29863281 0.51871094 7.28476563 0.59992187 8.30078125 0.68359375 C11 1 11 1 14 2 C14.86625 2.144375 15.7325 2.28875 16.625 2.4375 C17.40875 2.623125 18.1925 2.80875 19 3 C19.33 3.66 19.66 4.32 20 5 C12.88515313 4.6143354 6.64558134 3.60900601 0 1 C0 0.67 0 0.34 0 0 Z " fill="#835AE1" transform="translate(238,57)"/>
<path d="M0 0 C3 2 3 2 4 5 C4.03954234 7.33299825 4.04401732 9.66708189 4 12 C4.99 11.67 5.98 11.34 7 11 C6.67 13.31 6.34 15.62 6 18 C4 17 4 17 3.18359375 14.70703125 C2.81427734 13.27423828 2.81427734 13.27423828 2.4375 11.8125 C2.18226562 10.8225 1.92703125 9.8325 1.6640625 8.8125 C0.9737344 5.88875745 0.40238896 2.97767827 0 0 Z " fill="#8359E1" transform="translate(45,307)"/>
<path d="M0 0 C0.66 0.33 1.32 0.66 2 1 C-2.73314862 4.66819018 -5.97834047 5.80575292 -12 6 C-14.5 5.0625 -14.5 5.0625 -16 4 C-11.59085217 2.89771304 -7.51617599 2.92345464 -3 3 C-3 2.34 -3 1.68 -3 1 C-2.01 0.67 -1.02 0.34 0 0 Z " fill="#835AE1" transform="translate(207,385)"/>
<path d="M0 0 C0.66 0.33 1.32 0.66 2 1 C1.2575 1.86625 0.515 2.7325 -0.25 3.625 C-2.07595264 5.78947195 -3.4997375 7.81207343 -5 10.25 C-7.17033953 13.23421686 -8.50111468 14.02808741 -12 15 C-11.34 13.68 -10.68 12.36 -10 11 C-9.01 11 -8.02 11 -7 11 C-7 9.68 -7 8.36 -7 7 C-4.625 4.375 -4.625 4.375 -2 2 C-1.34 1.34 -0.68 0.68 0 0 Z " fill="#825ADC" transform="translate(288,359)"/>
<path d="M0 0 C1.65 0 3.3 0 5 0 C5 0.99 5 1.98 5 3 C6.051875 2.896875 7.10375 2.79375 8.1875 2.6875 C12 3 12 3 14.9375 5.5 C15.9584375 6.7375 15.9584375 6.7375 17 8 C11.4420538 6.58094991 6.04581385 4.77194924 1 2 C0.67 1.34 0.34 0.68 0 0 Z " fill="#825BDC" transform="translate(53,327)"/>
<path d="M0 0 C0.33 0 0.66 0 1 0 C1.99 3.63 2.98 7.26 4 11 C4.66 11 5.32 11 6 11 C6 12.32 6 13.64 6 15 C6.99 15.33 7.98 15.66 9 16 C8.67 16.99 8.34 17.98 8 19 C3.0397015 12.71383555 -0.38646385 8.30897279 0 0 Z " fill="#825CDA" transform="translate(2,212)"/>
<path d="M0 0 C0 0.99 0 1.98 0 3 C-1.711173 4.6762511 -3.56450049 6.04914323 -5.46875 7.5 C-5.9740625 7.995 -6.479375 8.49 -7 9 C-7 9.99 -7 10.98 -7 12 C-7.66 12 -8.32 12 -9 12 C-9 12.66 -9 13.32 -9 14 C-9.66 14 -10.32 14 -11 14 C-10.59102482 9.1009995 -8.60793633 7.3004017 -4.9375 4.1875 C-3.55884766 3.00220703 -3.55884766 3.00220703 -2.15234375 1.79296875 C-1.44207031 1.20128906 -0.73179688 0.60960938 0 0 Z " fill="#825ADB" transform="translate(22,123)"/>
<path d="M0 0 C0.33 0 0.66 0 1 0 C1.05434116 2.5419589 1.0938339 5.08273682 1.125 7.625 C1.14175781 8.33785156 1.15851562 9.05070312 1.17578125 9.78515625 C1.21684602 14.2612164 0.69086567 17.77949278 -1 22 C-1.66 22 -2.32 22 -3 22 C-2.67 20.989375 -2.34 19.97875 -2 18.9375 C-0.77848365 14.67518762 0.04544531 10.09089061 -2 6 C-1.39421747 3.98072489 -0.73080266 1.97746603 0 0 Z " fill="#815BD8" transform="translate(26,101)"/>
<path d="M0 0 C2.88300278 2.88300278 2.42114604 5.94078055 2.5625 9.8125 C2.75271927 14.28467654 2.96048302 18.62715586 4 23 C2.68 22.34 1.36 21.68 0 21 C0 14.07 0 7.14 0 0 Z " fill="#825ADE" transform="translate(366,99)"/>
<path d="M0 0 C0.66 0 1.32 0 2 0 C1.979375 1.155 1.95875 2.31 1.9375 3.5 C1.92992231 7.74350547 2.40025235 11.80176644 3 16 C2.01 16.33 1.02 16.66 0 17 C-0.33 16.34 -0.66 15.68 -1 15 C-0.34 15 0.32 15 1 15 C0.84402344 14.16855469 0.68804687 13.33710938 0.52734375 12.48046875 C0.33269531 11.39378906 0.13804687 10.30710938 -0.0625 9.1875 C-0.25972656 8.10855469 -0.45695312 7.02960938 -0.66015625 5.91796875 C-1 3 -1 3 0 0 Z " fill="#8358E3" transform="translate(380,233)"/>
<path d="M0 0 C0.66 0.99 1.32 1.98 2 3 C1.55011719 3.54140625 1.10023438 4.0828125 0.63671875 4.640625 C-1.1861668 7.26836455 -2.14550289 9.73180147 -3.1875 12.75 C-3.70376953 14.22726562 -3.70376953 14.22726562 -4.23046875 15.734375 C-4.48441406 16.48203125 -4.73835938 17.2296875 -5 18 C-6.13437515 15.1708957 -6.00369234 14.01131716 -5.0390625 11.0546875 C-4.57242187 10.00539063 -4.10578125 8.95609375 -3.625 7.875 C-3.16351563 6.82054687 -2.70203125 5.76609375 -2.2265625 4.6796875 C-1.50759675 3.10895342 -0.7725435 1.545087 0 0 Z " fill="#825BDB" transform="translate(332,249)"/>
<path d="M0 0 C1.9375 0.8125 1.9375 0.8125 4 2 C4.33 2.99 4.66 3.98 5 5 C6.64551962 5.71727778 8.31422289 6.38325228 10 7 C10.66 7.66 11.32 8.32 12 9 C8.63316819 9.38478078 7.22817329 9.1432716 4.3125 7.3125 C1.93078794 4.93078794 0.9746048 3.18961572 0 0 Z " fill="#835ADF" transform="translate(243,9)"/>
<path d="M0 0 C1.66666667 0 3.33333333 0 5 0 C5.103125 1.0725 5.20625 2.145 5.3125 3.25 C5.97400493 6.85820872 6.57483421 8.36395023 9 11 C5.28720216 9.55613418 4.0513557 7.87763608 2.25 4.375 C1.82203125 3.55773437 1.3940625 2.74046875 0.953125 1.8984375 C0.63859375 1.27195312 0.3240625 0.64546875 0 0 Z " fill="#835AE0" transform="translate(107,362)"/>
<path d="M0 0 C0 0.33 0 0.66 0 1 C-0.75925781 1.12117188 -1.51851562 1.24234375 -2.30078125 1.3671875 C-3.79158203 1.61855469 -3.79158203 1.61855469 -5.3125 1.875 C-6.29863281 2.03742187 -7.28476563 2.19984375 -8.30078125 2.3671875 C-11.20059827 2.88085454 -11.20059827 2.88085454 -14 5 C-14.33 3.68 -14.66 2.36 -15 1 C-9.94997778 -0.03590199 -5.12583611 -0.10251672 0 0 Z " fill="#835ADF" transform="translate(147,60)"/>
<path d="M0 0 C4.82360189 -0.19294408 8.49646738 0.24252386 13 2 C12.67 3.32 12.34 4.64 12 6 C10.948125 5.360625 9.89625 4.72125 8.8125 4.0625 C5.89171588 2.38245548 3.3828257 1.41003948 0 1 C0 0.67 0 0.34 0 0 Z " fill="#825BDB" transform="translate(94,356)"/>
<path d="M0 0 C0 0.99 0 1.98 0 3 C-3.35725691 6.25851406 -6.5221629 7.75037104 -11 9 C-9.1875 7 -9.1875 7 -7 5 C-6.01 5 -5.02 5 -4 5 C-3.67 4.01 -3.34 3.02 -3 2 C-2.01 1.34 -1.02 0.68 0 0 Z " fill="#835BDE" transform="translate(365,293)"/>
<path d="M0 0 C4.05281712 1.22527029 7.44360764 2.69880494 11 5 C7.37673261 6.2077558 6.35853631 5.54311128 3 4 C3 3.34 3 2.68 3 2 C2.01 1.67 1.02 1.34 0 1 C0 0.67 0 0.34 0 0 Z " fill="#835AE0" transform="translate(353,90)"/>
<path d="M0 0 C0.3403125 0.928125 0.3403125 0.928125 0.6875 1.875 C2.37929835 4.61410209 3.99244161 5.05024472 7 6 C5 7 5 7 2 7 C1.01 6.67 0.02 6.34 -1 6 C-0.67 4.02 -0.34 2.04 0 0 Z " fill="#8357E4" transform="translate(85,291)"/>
<path d="M0 0 C0 3.34419152 -0.47519394 4.06840321 -2.375 6.6875 C-2.81585938 7.31011719 -3.25671875 7.93273437 -3.7109375 8.57421875 C-4.13632812 9.04472656 -4.56171875 9.51523437 -5 10 C-5.66 10 -6.32 10 -7 10 C-5.6062718 5.56541027 -3.39417765 3.12621626 0 0 Z " fill="#825ADE" transform="translate(320,274)"/>
<path d="M0 0 C1.875 0.5 1.875 0.5 4 2 C4.98494554 4.65177645 5.45912382 7.20547307 6 10 C2.51668565 6.98112756 1.20842856 4.43090471 0 0 Z " fill="#8459E3" transform="translate(332,141)"/>
<path d="M0 0 C0.95465783 2.16967689 1.14401212 3.56328793 0.3984375 5.82421875 C-0.35870385 7.5684743 -1.17609198 9.28627131 -2 11 C-2.66 11 -3.32 11 -4 11 C-3.5247412 9.35303396 -3.04468109 7.70745272 -2.5625 6.0625 C-2.29566406 5.14597656 -2.02882813 4.22945312 -1.75390625 3.28515625 C-1 1 -1 1 0 0 Z " fill="#835ADE" transform="translate(78,42)"/>
<path d="M0 0 C0.99 0 1.98 0 3 0 C3 2.97 3 5.94 3 9 C2.34 8.67 1.68 8.34 1 8 C1 7.34 1 6.68 1 6 C0.34 5.67 -0.32 5.34 -1 5 C-0.67 3.35 -0.34 1.7 0 0 Z " fill="#8658EA" transform="translate(11,252)"/>
<path d="M0 0 C0.66 0.66 1.32 1.32 2 2 C-2.48074195 5.36055646 -5.60550707 5.27429625 -11 5 C-11 4.67 -11 4.34 -11 4 C-7.7 3.67 -4.4 3.34 -1 3 C-0.67 2.01 -0.34 1.02 0 0 Z " fill="#8158DE" transform="translate(311,351)"/>
<path d="M0 0 C0.33 0 0.66 0 1 0 C1 1.98 1 3.96 1 6 C1.66 6 2.32 6 3 6 C2.67 6.66 2.34 7.32 2 8 C0.68 8.33 -0.64 8.66 -2 9 C-1.34 6.03 -0.68 3.06 0 0 Z " fill="#845AE2" transform="translate(12,154)"/>
<path d="M0 0 C0.66 0.99 1.32 1.98 2 3 C1.5390625 5.26171875 1.5390625 5.26171875 0.625 7.6875 C0.18027344 8.89986328 0.18027344 8.89986328 -0.2734375 10.13671875 C-0.51320312 10.75160156 -0.75296875 11.36648437 -1 12 C-1.33 12 -1.66 12 -2 12 C-1.85904936 10.3745692 -1.71207913 8.74965949 -1.5625 7.125 C-1.48128906 6.22007813 -1.40007813 5.31515625 -1.31640625 4.3828125 C-1 2 -1 2 0 0 Z " fill="#825ADD" transform="translate(49,69)"/>
</svg>
