<?xml version="1.0" encoding="UTF-8"?>
<svg version="1.1" xmlns="http://www.w3.org/2000/svg" width="428" height="400">
<path d="M0 0 C2.93071141 1.3572557 5.63128445 2.86232533 8.359375 4.58984375 C12.07092932 6.57190161 15.23917313 7.41210842 19.38671875 6.44140625 C20.14597656 6.15136719 20.90523437 5.86132812 21.6875 5.5625 C27.16938604 3.79840434 32.28061902 2.92071117 38 4 C41.08273664 5.59250376 43.66791882 7.42067812 46 10 C46 10.66 46 11.32 46 12 C47.175625 12.4640625 47.175625 12.4640625 48.375 12.9375 C51 14 51 14 53 15 C54.37935952 15.04846786 55.76114512 15.03709942 57.140625 14.9921875 C57.96433594 14.97542969 58.78804688 14.95867188 59.63671875 14.94140625 C61.36350922 14.89752667 63.09011585 14.84558955 64.81640625 14.78515625 C70.00287687 14.69642969 73.5190064 15.07223425 78 18 C79.79329361 19.97262297 81.39671188 21.88835224 83 24 C83.98714081 25.26017976 84.98745064 26.51014364 86 27.75 C86.680625 28.60851563 86.680625 28.60851563 87.375 29.484375 C91.05284858 32.91467608 95.0933727 33.21290565 99.9375 33.375 C105.04826667 33.74498188 108.12631795 34.4168441 112 38 C115.71659076 42.56609723 117.36728403 47.43392283 119 53 C119.66 53 120.32 53 121 53 C121 53.66 121 54.32 121 55 C124.26473493 56.41471847 127.50800195 57.40210534 130.9375 58.3125 C136.18122113 59.85982755 140.12473758 61.93138877 143.07421875 66.7578125 C144.2492938 69.60377485 144.74264162 72.41340493 145.3125 75.4375 C146.52735193 80.77332022 147.37509008 83.75272282 152 87 C154.51374919 88.4690742 157.0232425 89.9167522 159.59765625 91.27734375 C162.72864013 93.52248829 164.21575731 95.58087431 166 99 C166.36098718 101.77596346 166.55989855 104.2320579 166.5625 107 C166.59768026 112.34739899 167.05533984 116.389541 170 121 C172.12040224 123.12618657 172.12040224 123.12618657 174.5 124.9375 C178.61858063 128.47921103 180.69696005 130.69476591 182 136 C181.95906918 139.76563538 181.31721963 143.38339998 180.59375 147.0703125 C179.48155693 153.51597686 180.90836037 157.90871961 184.50390625 163.22265625 C185.30634766 164.34994141 185.30634766 164.34994141 186.125 165.5 C188.85554153 169.51711248 190.71290725 173.04442521 190 178 C188.84465261 181.07811531 187.51386322 184.04550627 186.1640625 187.04296875 C184.26101719 191.87721473 183.80711149 196.20416756 185.875 201.05078125 C186.57972961 202.38510385 187.2984181 203.71215257 188.03125 205.03125 C190.25396431 209.54837909 190.43467704 213.59369194 188.9375 218.4375 C187.5308535 221.31621842 185.72807082 223.82980516 183.875 226.4375 C180.87040716 230.84722582 180 233.65013762 180 239 C180.29487496 240.32167171 180.62934187 241.6350485 181 242.9375 C182.2780726 247.46400712 182.40002521 251.47433712 181 256 C178.68091804 259.72814442 175.77703558 262.40367037 172.3125 265.0625 C168.36191044 268.37245342 167.12154503 271.83012904 166.59375 276.91015625 C166.52653819 278.99569932 166.49977757 281.07961089 166.47265625 283.16601562 C166.32875787 287.62263314 165.6957407 290.42535601 163 294 C160.18867481 296.57035446 157.20878336 298.46573797 153.9375 300.375 C149.23032456 303.32140869 146.67263732 306.27144863 145.30859375 311.8046875 C145.08300781 312.83851563 144.85742188 313.87234375 144.625 314.9375 C143.29743946 320.54661705 141.86433895 324.64332166 137 328 C133.98283956 329.20024215 130.946425 330.14100636 127.8359375 331.0703125 C122.7175995 332.74822496 120.01716656 335.12748883 117.453125 339.84765625 C116.4289742 341.93398325 115.4395869 344.03787455 114.4921875 346.16015625 C112.88960116 349.2101046 111.7792683 350.9572378 109 353 C106.24370402 353.79487159 103.46830808 354.15313596 100.625 354.5 C94.76612482 355.22218774 90.69858342 356.10277848 86 360 C84.10039015 362.46404311 82.5320135 365.01032113 80.90625 367.66015625 C78.47331483 370.64648447 76.63439732 371.70351908 73 373 C69.23130267 373.32979458 65.49213594 373.07154141 61.72070312 372.8828125 C55.45992358 372.69229005 50.87862391 373.52394227 45.9609375 377.75390625 C45.43757812 378.35074219 44.91421875 378.94757813 44.375 379.5625 C40.66677291 383.46849921 38.11040978 384.80090474 32.6875 385.3125 C29.54863967 385.04649489 27.86746845 384.66048695 25.0625 383.5 C19.49264727 381.24195159 15.07433063 381.26167893 9.3125 383.3125 C6.08048236 384.87794076 6.08048236 384.87794076 3.5625 386.625 C-0.57405543 388.84461511 -4.60288453 389.56556263 -9.15234375 388.4921875 C-12.93066969 387.15534965 -15.84380784 385.47986527 -19 383 C-24.23488545 380.94343786 -29.96873816 381.40315046 -35.0625 383.5 C-40.04338082 385.54693732 -44.02215099 385.75158262 -49.125 383.8125 C-52 382 -52 382 -54.375 379.5625 C-58.82413521 375.21929658 -63.41573881 372.73518586 -69.7265625 372.75 C-71.36029221 372.81283576 -72.99334784 372.89640304 -74.625 373 C-81.02734835 373.40266342 -84.91449741 373.47433685 -90 369 C-91.89960985 366.53595689 -93.4679865 363.98967887 -95.09375 361.33984375 C-98.23492506 357.4841801 -101.60414857 356.23951542 -106.4375 355.41015625 C-107.613125 355.29542969 -108.78875 355.18070312 -110 355.0625 C-119.14015152 353.85984848 -119.14015152 353.85984848 -123 350 C-124.56895479 347.42803482 -125.78549584 344.75321919 -127 342 C-129.45218432 336.85664729 -131.8397176 333.67570199 -137 331 C-138.68015536 330.49568371 -140.36848456 330.01809702 -142.0625 329.5625 C-147.93771463 327.94571161 -150.65385287 325.01922069 -154 320 C-154.48366925 317.90596378 -154.91540337 315.79966426 -155.3125 313.6875 C-156.61650516 307.92814388 -157.49032078 304.83802487 -162 301 C-164.53210985 299.68461826 -167.10407659 298.48051097 -169.6875 297.26953125 C-173.06059848 295.41774577 -174.42932845 293.48279343 -176 290 C-176.91419696 286.10472598 -177.01505877 282.42917491 -176.875 278.4375 C-177.07138152 273.0370081 -178.76371093 269.36642476 -182.375 265.375 C-183.24125 264.59125 -184.1075 263.8075 -185 263 C-189.67762896 258.64871725 -191.84724978 255.90225419 -192.1875 249.4375 C-192 246 -192 246 -191.50390625 244.08984375 C-190.25570918 238.91321247 -190.37693401 233.65112486 -192.25 228.6875 C-193.9640169 225.95696608 -193.9640169 225.95696608 -196.0625 223.4375 C-199.16300916 219.53685944 -200.22770079 216.705016 -199.875 211.75 C-199.41069952 208.2935409 -198.45693027 205.56828337 -196.9375 202.4375 C-194.96873325 198.24663255 -193.99688794 194.60105117 -195 190 C-196.19262026 187.14844083 -197.52366934 184.38881647 -198.875 181.609375 C-200.84326988 177.04408236 -200.65978358 173.68611359 -198.875 169.125 C-197 166 -197 166 -195.46484375 164.01171875 C-190.94189874 157.99181794 -190.07158589 153.46256912 -191 146 C-191.32344792 144.66423418 -191.65565914 143.33053307 -192 142 C-192.39289177 136.69596107 -191.98827715 133.4371388 -189 129 C-187.52493815 127.65953411 -186.02201442 126.3494065 -184.5 125.0625 C-180.53881884 121.64235822 -178.30415634 119.21662535 -177 114 C-176.93753722 110.95181657 -177.00182161 107.91893844 -177.0703125 104.87109375 C-176.93391563 99.30155508 -175.21934357 96.19224705 -171.1875 92.25 C-168 90 -168 90 -164.9375 88.5625 C-159.85527323 85.85918789 -157.65771769 83.11624433 -155.9765625 77.70703125 C-155.65429688 76.48371094 -155.33203125 75.26039062 -155 74 C-152.52645154 64.72174904 -152.52645154 64.72174904 -148 61 C-145.06483411 59.73896577 -142.06651418 58.87924831 -139 58 C-133.2412027 55.67433186 -129.57215528 52.40233605 -126.9765625 46.78515625 C-126.65429688 46.01042969 -126.33203125 45.23570313 -126 44.4375 C-124.32544829 40.41721999 -122.41684588 37.80356585 -119 35 C-116.06857235 34.02285745 -113.81409333 33.80473732 -110.75 33.625 C-104.30750547 33.05554468 -100.0109484 32.15809097 -95.4375 27.25 C-94.61641099 26.17316195 -93.80440816 25.08935525 -93 24 C-92.01448868 22.73854551 -91.01409655 21.48859121 -90 20.25 C-89.54625 19.67765625 -89.0925 19.1053125 -88.625 18.515625 C-84.66362444 14.82088049 -80.58412381 14.83742532 -75.45507812 14.97070312 C-73.86377174 15.03175733 -72.27261477 15.09684284 -70.68164062 15.16601562 C-63.4881026 15.34058684 -59.06475919 13.29219847 -53.75 8.375 C-49.85237453 4.79462311 -47.97211785 3.84833859 -42.625 3.8125 C-41.19027344 3.79123047 -41.19027344 3.79123047 -39.7265625 3.76953125 C-36.90074059 4.00839012 -35.4835132 4.73151283 -33 6 C-26.31859928 7.03248986 -21.19113615 6.50788297 -15.375 3 C-10.10102004 -0.17345499 -6.09161935 -1.44816104 0 0 Z M-14.578125 49.18359375 C-18.88266943 50.21059122 -22.96775136 50.23682788 -27.375 50.3125 C-35.21933948 50.52051136 -40.51532855 52.02736653 -47.58203125 55.5234375 C-51.38305924 57.16548159 -54.87710434 57.85946297 -58.9375 58.5 C-64.34111191 59.45781236 -67.18588992 60.3236049 -70.92578125 64.25 C-75.11138273 67.78135492 -80.34590253 69.81571161 -85.2578125 72.16796875 C-91.86120439 75.30929681 -91.86120439 75.30929681 -96.625 80.6875 C-99.82832322 85.20543378 -103.78271371 88.02813253 -108.31640625 91.140625 C-113.67777176 94.85534113 -116.96682087 98.06757166 -120 103.875 C-123.10531407 109.74480099 -126.30944413 114.83443064 -131.5625 119.0625 C-134.77026376 122.92826658 -135.56065933 126.77144983 -136.89453125 131.5625 C-138.93129912 137.89591245 -142.32513962 143.48770944 -146 149 C-146.36350386 151.67723481 -146.64747211 154.31161671 -146.875 157 C-147.36884391 162.15924167 -147.96239233 166.50922077 -150.1875 171.25 C-152.77648316 177.47498157 -151.96723333 183.58061713 -151.48242188 190.15673828 C-151.10572718 195.27594606 -151.05079796 200.00689513 -151.6875 205.125 C-152.24046399 210.53713507 -151.17220508 213.91433335 -149.03515625 218.84765625 C-147.69456817 222.93012635 -147.44813272 226.85956127 -147.125 231.125 C-146.58551572 237.52875692 -145.7137598 241.73724944 -141.58984375 246.859375 C-137.78086381 251.98792785 -135.5306695 258.55075616 -134.1875 264.75 C-132.67964966 268.87674831 -130.33099742 270.79816786 -127.1640625 273.7578125 C-122.65875229 278.42576929 -119.07614132 284.20203258 -116.75 290.25 C-114.27159006 294.14464419 -110.84081146 295.7363347 -106.921875 298.07421875 C-101.36753351 301.73503473 -96.9498232 306.68129134 -92.6875 311.75 C-89.18470233 314.68257479 -85.45137894 315.89420422 -81.21875 317.5390625 C-75.19544441 320.27294149 -69.67804765 324.32195235 -65 329 C-62.53772553 329.4818771 -60.10444771 329.88556 -57.625 330.25 C-52.1289852 331.13477511 -47.86591452 332.33899632 -43 335.1875 C-37.59952674 338.17312749 -33.07613429 338.37166904 -27.08227539 338.09228516 C-21.14765071 337.84645969 -15.93018467 338.88920582 -10.18359375 340.44140625 C-4.95218055 341.35931065 -0.17503955 340.05612697 4.9375 338.9375 C9.00240304 338.15020422 12.73565083 337.99369669 16.87133789 338.16699219 C24.38140771 338.46870833 29.30519779 337.35794392 35.859375 333.5078125 C39.65133539 331.68729421 43.11971202 331.14392987 47.25 330.5625 C53.2275219 329.66330655 56.68743901 328.31814461 60.875 323.90625 C66.18645349 319.14156378 73.70511901 316.46620168 80.16015625 313.59375 C83.29857756 311.83243515 85.03158807 310.01630374 87.3125 307.25 C92.21367603 301.5801741 97.66452189 297.29777381 103.8125 293.0625 C106.38233284 290.63951475 107.44409271 288.31378611 108.9140625 285.14453125 C111.55460514 279.92993444 115.13963103 275.70655356 119.5625 271.9375 C123.4457046 268.21609559 124.65722101 263.78565705 126.14990234 258.78027344 C128.18390338 252.03604245 130.95020033 245.04979967 136 240 C136.37100559 237.1762352 136.65160195 234.39802486 136.875 231.5625 C137.37458173 226.04421932 138.00835888 221.21455874 140.1875 216.0625 C142.15194547 211.30723716 142.0719909 207.86900625 141.3671875 202.8203125 C140.51608805 196.28314437 140.67283972 189.72978272 141.8125 183.25 C142.46917188 177.79524558 140.67035074 173.16699369 138.89306641 168.10131836 C137.39663873 163.71862877 136.7384837 159.99167078 136.6875 155.3125 C136.41922207 148.69497777 133.73021008 144.84987096 130.0546875 139.48046875 C127.29312143 135.17006793 126.05755233 130.41696517 124.89941406 125.4675293 C123.53618468 120.19863445 121.21640543 118.26313116 117 115 C115.32856696 112.87005583 113.8009059 110.80692159 112.3125 108.5625 C111.93544922 108.01529297 111.55839844 107.46808594 111.16992188 106.90429688 C109.38312392 104.26931559 107.86032682 101.69774428 106.5234375 98.8046875 C104.8041081 95.63935799 103.33400324 94.46457661 100.3125 92.5625 C88.37558933 84.64516129 88.37558933 84.64516129 84.9375 78.4375 C82.09306692 74.07862473 77.41227522 72.95677538 72.74121094 71.27807617 C66.04230165 68.8133055 61.03244033 65.03244033 56 60 C53.18770784 59.32845161 50.39871273 58.7354762 47.5625 58.1875 C42.18096852 57.09696243 37.47011192 55.99475396 32.625 53.3125 C26.7542339 50.33181783 20.93432398 50.45349559 14.48291016 50.32055664 C9.38306701 50.19749 4.94051651 49.66667823 0 48.25 C-5.61322336 46.77208803 -9.11399966 47.45617846 -14.578125 49.18359375 Z " fill="#8A52FC" transform="translate(224,7)"/>
<path d="M0 0 C0.33 0 0.66 0 1 0 C1.76891517 17.59961385 1.76891517 17.59961385 -3 24 C-4.99212671 25.01559401 -6.9911515 26.01789629 -9 27 C-9.97474816 30.08961458 -9.97474816 30.08961458 -10 33 C-9.34 33.33 -8.68 33.66 -8 34 C-9.485 34.495 -9.485 34.495 -11 35 C-11.66 35.99 -12.32 36.98 -13 38 C-13.66 38 -14.32 38 -15 38 C-15.33 38.99 -15.66 39.98 -16 41 C-16.3183808 35.69365327 -15.98955485 32.439036 -13 28 C-11.52493815 26.65953411 -10.02201442 25.3494065 -8.5 24.0625 C-4.53881884 20.64235822 -2.30415634 18.21662535 -1 13 C-0.86605444 9.80966037 -0.87342061 6.66743304 -0.9921875 3.4765625 C-0.99476562 2.65929687 -0.99734375 1.84203125 -1 1 C-0.67 0.67 -0.34 0.34 0 0 Z " fill="#8459E5" transform="translate(48,108)"/>
<path d="M0 0 C1.06486855 0.89301656 2.12675041 1.7895947 3.1875 2.6875 C3.8371875 3.23664063 4.486875 3.78578125 5.15625 4.3515625 C7 6 7 6 9.1875 8.5625 C12.89956031 11.77961894 16.88309209 13.17574301 21.453125 14.88671875 C24 16 24 16 25 18 C23.906875 17.835 22.81375 17.67 21.6875 17.5 C18.12474127 16.93281816 18.12474127 16.93281816 15 17 C13.68 17 12.36 17 11 17 C11 16.34 11 15.68 11 15 C10.34 14.67 9.68 14.34 9 14 C9 13.34 9 12.68 9 12 C6.76459712 8.15013949 4.00180712 6.77858094 0 5 C0 3.35 0 1.7 0 0 Z " fill="#8555EE" transform="translate(122,309)"/>
<path d="M0 0 C0.66 1.32 1.32 2.64 2 4 C3.94124908 7.49424834 5.79910362 10.73022486 8.1875 13.9375 C10.52256333 17.88295183 10.85009558 20.42791525 11 25 C10.34 25.99 9.68 26.98 9 28 C9 26.35 9 24.7 9 23 C8.34 23 7.68 23 7 23 C7 21.68 7 20.36 7 19 C6.34 19 5.68 19 5 19 C5.33 17.35 5.66 15.7 6 14 C4.02 13.34 2.04 12.68 0 12 C0 8.04 0 4.08 0 0 Z " fill="#8558E7" transform="translate(403,160)"/>
<path d="M0 0 C2 2 2 2 2 5 C2.99 5 3.98 5 5 5 C5.103125 5.78375 5.20625 6.5675 5.3125 7.375 C5.77595022 10.33045181 5.77595022 10.33045181 9 12 C11.13419455 12.55491144 11.13419455 12.55491144 13.4921875 12.89453125 C14.79736328 13.12172852 14.79736328 13.12172852 16.12890625 13.35351562 C17.95015796 13.65792114 19.77311454 13.95230693 21.59765625 14.23632812 C27.16944497 15.22805714 30.47859772 16.2311374 34 21 C34.8125 23.3125 34.8125 23.3125 35 25 C34.59910156 24.60167969 34.19820312 24.20335937 33.78515625 23.79296875 C27.95062098 18.35534064 22.22783134 16.17444158 14.3125 15.5625 C9.91673723 15.14896134 7.34281518 14.03185563 4 11 C1.66780345 7.39635673 0 4.33493745 0 0 Z " fill="#825CD9" transform="translate(97,346)"/>
<path d="M0 0 C0.99 0 1.98 0 3 0 C2.90460938 0.6290625 2.80921875 1.258125 2.7109375 1.90625 C2.03688404 7.11056975 2.05299583 10.9752664 3.5859375 15.97265625 C4.34207852 19.6748939 3.63146742 23.31359561 3 27 C2.67 27 2.34 27 2 27 C2 25.35 2 23.7 2 22 C0.68 21.34 -0.64 20.68 -2 20 C-1.505 18.515 -1.505 18.515 -1 17 C-0.34 17 0.32 17 1 17 C0.84402344 16.19175781 0.68804687 15.38351563 0.52734375 14.55078125 C0.33269531 13.48214844 0.13804687 12.41351563 -0.0625 11.3125 C-0.25972656 10.25675781 -0.45695312 9.20101562 -0.66015625 8.11328125 C-0.99034946 5.08840784 -0.77474558 2.92019489 0 0 Z " fill="#8754F7" transform="translate(402,236)"/>
<path d="M0 0 C3.3 0.99 6.6 1.98 10 3 C9.835 4.010625 9.67 5.02125 9.5 6.0625 C9.03014231 9.76262933 8.92400151 13.27607391 9 17 C9.66 17.33 10.32 17.66 11 18 C11 19.65 11 21.3 11 23 C7.67534007 20.39170326 7.35136907 17.80634675 6.625 13.75 C5.41383191 7.95323295 3.8412658 4.46417377 0 0 Z " fill="#8358E4" transform="translate(62,307)"/>
<path d="M0 0 C2.04219706 1.69179328 2.91793306 2.63727666 3.51171875 5.26171875 C3.56972656 6.06222656 3.62773437 6.86273438 3.6875 7.6875 C3.75324219 8.49574219 3.81898438 9.30398437 3.88671875 10.13671875 C3.92410156 10.75160156 3.96148437 11.36648437 4 12 C4.66 12 5.32 12 6 12 C6.02692484 14.29160319 6.04636124 16.58329546 6.0625 18.875 C6.07410156 20.15117187 6.08570313 21.42734375 6.09765625 22.7421875 C6 26 6 26 5 28 C4.77377919 29.70363822 4.59111527 31.41328701 4.4375 33.125 C4.31181641 34.49011719 4.31181641 34.49011719 4.18359375 35.8828125 C4.12300781 36.58148438 4.06242187 37.28015625 4 38 C3.67 38 3.34 38 3 38 C2.91115531 32.25471026 2.83362362 26.68338485 3.75 21 C4.3918054 15.71152354 2.81539639 11.55956089 0.91015625 6.6640625 C0 4 0 4 0 0 Z " fill="#815ADB" transform="translate(361,169)"/>
<path d="M0 0 C0.40089844 0.47179688 0.80179688 0.94359375 1.21484375 1.4296875 C7.989005 7.3885777 23.33058589 5.63758225 32 6 C32.495 6.99 32.495 6.99 33 8 C10.42914427 7.44993606 10.42914427 7.44993606 0.65625 4.5234375 C-2.48872275 3.90369287 -4.89094292 4.31417859 -8 5 C-6.8125 3.5 -6.8125 3.5 -5 2 C-2.3125 1.8125 -2.3125 1.8125 0 2 C0 1.34 0 0.68 0 0 Z " fill="#815ADD" transform="translate(220,51)"/>
<path d="M0 0 C0 0.33 0 0.66 0 1 C-4.30938996 1.85630851 -8.45517047 2.12251609 -12.82836914 2.24072266 C-20.84605799 2.47238856 -26.84017894 3.09464306 -34 7 C-34.66 6.67 -35.32 6.34 -36 6 C-34.68 5.67 -33.36 5.34 -32 5 C-32 4.01 -32 3.02 -32 2 C-26.53897327 0.6734348 -21.00659847 0.63442474 -15.41796875 0.39453125 C-14.63808594 0.35714844 -13.85820312 0.31976563 -13.0546875 0.28125 C-12.34812012 0.25095703 -11.64155273 0.22066406 -10.91357422 0.18945312 C-2.98003072 -0.59600614 -2.98003072 -0.59600614 0 0 Z " fill="#835DDD" transform="translate(212,56)"/>
<path d="M0 0 C0.33 0 0.66 0 1 0 C1.29296875 2.2421875 1.29296875 2.2421875 1 5 C-1.01171875 7.1328125 -1.01171875 7.1328125 -3.6875 9.125 C-4.99267578 10.11886719 -4.99267578 10.11886719 -6.32421875 11.1328125 C-9.79539069 13.55503175 -12.97316912 15.65772304 -17 17 C-18.20882096 19.00016466 -18.20882096 19.00016466 -19 21 C-19.33 20.34 -19.66 19.68 -20 19 C-17.16543716 15.06818703 -14.83324635 12.72087918 -10.5 10.5 C-5.58797689 7.9703081 -2.5083931 5.01678621 0 0 Z " fill="#7F59DC" transform="translate(68,86)"/>
<path d="M0 0 C-1.46484375 1.10677083 -2.9296875 2.21354167 -4.39453125 3.3203125 C-8.91984875 8.05482959 -9.49091672 13.16296837 -9.6875 19.375 C-9.72166016 20.11105469 -9.75582031 20.84710938 -9.79101562 21.60546875 C-9.87272789 23.40313853 -9.93805781 25.20154046 -10 27 C-10.33 27 -10.66 27 -11 27 C-11.05413245 24.10391407 -11.09373641 21.20884805 -11.125 18.3125 C-11.14175781 17.49587891 -11.15851563 16.67925781 -11.17578125 15.83789062 C-11.21103579 11.48395541 -11.19981976 7.89968048 -9 4 C-8.34 3.67 -7.68 3.34 -7 3 C-6.67 2.01 -6.34 1.02 -6 0 C-3.50907189 -1.24546405 -2.58919267 -0.7767578 0 0 Z " fill="#835BE0" transform="translate(400,269)"/>
<path d="M0 0 C1.23782051 3.98853276 0.31067965 6.06796105 -1 10 C-1.66 9.67 -2.32 9.34 -3 9 C-3.33 9.66 -3.66 10.32 -4 11 C-4.7425 11.28875 -5.485 11.5775 -6.25 11.875 C-9.33778039 13.13818288 -11.47888085 14.83904073 -14 17 C-14.66 16.67 -15.32 16.34 -16 16 C-15.40832031 15.55269531 -14.81664062 15.10539062 -14.20703125 14.64453125 C-5.7156016 8.52021358 -5.7156016 8.52021358 0 0 Z " fill="#8258DD" transform="translate(332,292)"/>
<path d="M0 0 C0.80244141 0.0515625 1.60488281 0.103125 2.43164062 0.15625 C3.68170898 0.25292969 3.68170898 0.25292969 4.95703125 0.3515625 C6.22450195 0.43664062 6.22450195 0.43664062 7.51757812 0.5234375 C9.60224342 0.66477074 11.68599991 0.819395 13.76953125 0.9765625 C13.76953125 1.6365625 13.76953125 2.2965625 13.76953125 2.9765625 C12.04072143 3.03106088 10.31140413 3.06957938 8.58203125 3.1015625 C7.61910156 3.12476563 6.65617188 3.14796875 5.6640625 3.171875 C2.64140347 2.9679169 0.5018314 2.24530882 -2.23046875 0.9765625 C-2.56046875 1.9665625 -2.89046875 2.9565625 -3.23046875 3.9765625 C-4.55046875 3.3165625 -5.87046875 2.6565625 -7.23046875 1.9765625 C-4.0556343 -0.1399938 -3.5634787 -0.25272899 0 0 Z " fill="#8359DD" transform="translate(146.23046875,22.0234375)"/>
<path d="M0 0 C7.88416983 1.35258896 15.39353334 3.54399352 23 6 C23 6.33 23 6.66 23 7 C20.69 7.33 18.38 7.66 16 8 C16 7.34 16 6.68 16 6 C10.97350697 4.42922093 6.23880078 3.55145271 1 3 C0.67 2.01 0.34 1.02 0 0 Z " fill="#8158DE" transform="translate(157,334)"/>
<path d="M0 0 C1.36682561 2.73365122 0.84683011 4.10666379 0 7 C-0.46535156 7.40992188 -0.93070312 7.81984375 -1.41015625 8.2421875 C-3.69997134 10.77392409 -4.25177231 13.42858632 -5.1875 16.6875 C-5.53167969 17.86699219 -5.87585938 19.04648437 -6.23046875 20.26171875 C-6.48441406 21.16535156 -6.73835938 22.06898438 -7 23 C-7.66 23 -8.32 23 -9 23 C-7.29633652 14.43684936 -4.53642795 7.45794628 0 0 Z " fill="#8259D7" transform="translate(356,251)"/>
<path d="M0 0 C4.62841845 3.4104136 6.52610965 5.57789376 7.6328125 11.234375 C7.79523438 12.39453125 7.95765625 13.5546875 8.125 14.75 C8.29257812 15.92046875 8.46015625 17.0909375 8.6328125 18.296875 C8.75398438 19.18890625 8.87515625 20.0809375 9 21 C8.34 21 7.68 21 7 21 C6.86722656 20.26394531 6.73445313 19.52789062 6.59765625 18.76953125 C6.33275391 17.30580078 6.33275391 17.30580078 6.0625 15.8125 C5.80146484 14.36810547 5.80146484 14.36810547 5.53515625 12.89453125 C5.0476265 10.25760028 4.53328895 7.6280095 4 5 C3.01 5 2.02 5 1 5 C0.67 3.35 0.34 1.7 0 0 Z " fill="#8159DB" transform="translate(361,68)"/>
<path d="M0 0 C0.66 0.33 1.32 0.66 2 1 C2.59765625 2.9609375 2.59765625 2.9609375 3.0625 5.375 C3.58410686 8.02183151 4.14392083 10.4317625 5 13 C3.59554165 15.2636564 1.8032087 17.0208685 0 19 C-0.33 18.34 -0.66 17.68 -1 17 C-0.67 16.34 -0.34 15.68 0 15 C0.0716735 12.44842345 0.09308442 9.92527029 0.0625 7.375 C0.05573242 6.31539062 0.05573242 6.31539062 0.04882812 5.234375 C0.03703875 3.48954725 0.01910324 1.744763 0 0 Z " fill="#825AE7" transform="translate(33,149)"/>
<path d="M0 0 C4.94663693 1.23665923 7.23222495 2.69457215 10 7 C10.75 9.3125 10.75 9.3125 11 11 C10.01 10.67 9.02 10.34 8 10 C8 9.01 8 8.02 8 7 C6.35 7 4.7 7 3 7 C2.67 6.34 2.34 5.68 2 5 C2.66 4.67 3.32 4.34 4 4 C2.68 3.34 1.36 2.68 0 2 C0 1.34 0 0.68 0 0 Z " fill="#845AE5" transform="translate(379,97)"/>
<path d="M0 0 C1.98 0 3.96 0 6 0 C3.56223359 3.65664961 2.10750014 3.92691101 -2 5.25 C-3.0725 5.60578125 -4.145 5.9615625 -5.25 6.328125 C-8 7 -8 7 -10 6 C-8.875 4.5 -8.875 4.5 -7 3 C-3.8125 2.8125 -3.8125 2.8125 -1 3 C-0.67 2.01 -0.34 1.02 0 0 Z " fill="#7D58DF" transform="translate(357,332)"/>
<path d="M0 0 C3.63 0 7.26 0 11 0 C11 0.66 11 1.32 11 2 C13.97 2 16.94 2 20 2 C20 2.33 20 2.66 20 3 C13.07 3 6.14 3 -1 3 C-0.67 2.01 -0.34 1.02 0 0 Z " fill="#855AE1" transform="translate(277,377)"/>
<path d="M0 0 C4.18291278 3.50786057 8.19020752 7.08135631 12 11 C12.66 11.66 13.32 12.32 14 13 C11.6875 12.75 11.6875 12.75 9 12 C7.98594743 10.67732273 6.98731742 9.34275169 6 8 C2.91666413 6.24927285 2.91666413 6.24927285 0 5 C0 3.35 0 1.7 0 0 Z " fill="#8159DE" transform="translate(122,309)"/>
<path d="M0 0 C-1 1 -1 1 -4.25 1.375 C-7.97420486 1.99570081 -9.84775224 3.07362637 -13 5 C-16 4 -16 4 -18 1 C-17.11248047 0.90912109 -17.11248047 0.90912109 -16.20703125 0.81640625 C-11.16781939 0.28584835 -11.16781939 0.28584835 -6.1875 -0.625 C-3.79785507 -1.03465342 -2.28153164 -0.76051055 0 0 Z " fill="#825ADD" transform="translate(233,346)"/>
<path d="M0 0 C0.66 0.33 1.32 0.66 2 1 C1.2575 1.86625 0.515 2.7325 -0.25 3.625 C-2.07595264 5.78947195 -3.4997375 7.81207343 -5 10.25 C-7.17033953 13.23421686 -8.50111468 14.02808741 -12 15 C-11.34 13.68 -10.68 12.36 -10 11 C-9.01 11 -8.02 11 -7 11 C-6.71125 10.2575 -6.4225 9.515 -6.125 8.75 C-3.5 2.33333333 -3.5 2.33333333 0 0 Z " fill="#815BD8" transform="translate(310,364)"/>
<path d="M0 0 C0.66 0.33 1.32 0.66 2 1 C2 1.99 2 2.98 2 4 C0.576875 4.3403125 0.576875 4.3403125 -0.875 4.6875 C-4.19323388 5.69083714 -4.19323388 5.69083714 -5.375 8.625 C-5.58125 9.40875 -5.7875 10.1925 -6 11 C-6.99 11 -7.98 11 -9 11 C-7.87672229 9.54033966 -6.75131706 8.08231636 -5.625 6.625 C-4.99851563 5.81289063 -4.37203125 5.00078125 -3.7265625 4.1640625 C-2 2 -2 2 0 0 Z " fill="#835ADF" transform="translate(137,24)"/>
<path d="M0 0 C0.33 0 0.66 0 1 0 C1 1.65 1 3.3 1 5 C0.34 5 -0.32 5 -1 5 C-1.33 6.65 -1.66 8.3 -2 10 C-1.01 10.33 -0.02 10.66 1 11 C0.49396008 13.16874252 0.00016187 14.99967627 -1 17 C-3.47310494 13.29034259 -3.55899802 10.30185433 -3 6 C-1.5 2.5 -1.5 2.5 0 0 Z " fill="#8657EC" transform="translate(28,208)"/>
<path d="M0 0 C2.45341915 2.45341915 2.67577385 4.44101326 3.046875 7.82421875 C2.97014202 11.38590802 1.6324242 13.86574554 0 17 C-1.9674499 13.0651002 -0.82841949 9.14209747 0 5 C0.0370279 3.3337447 0.04759962 1.66598681 0 0 Z " fill="#8059DB" transform="translate(411,212)"/>
<path d="M0 0 C0.66 0 1.32 0 2 0 C1.46515599 5.34844008 -0.46690767 9.35796103 -3 14 C-3.33 14 -3.66 14 -4 14 C-4.37153846 7.43615385 -4.37153846 7.43615385 -2.5625 5.3125 C-2.046875 4.879375 -1.53125 4.44625 -1 4 C-0.28552357 1.89667109 -0.28552357 1.89667109 0 0 Z " fill="#8157E0" transform="translate(87,134)"/>
<path d="M0 0 C0.66 0.33 1.32 0.66 2 1 C2.05406122 2.93719378 2.09282025 4.87481921 2.125 6.8125 C2.14820313 7.89144531 2.17140625 8.97039062 2.1953125 10.08203125 C2 13 2 13 0 16 C-0.66 16 -1.32 16 -2 16 C-1.67 15.21625 -1.34 14.4325 -1 13.625 C0.27410171 9.00638131 0.16923936 4.75750644 0 0 Z " fill="#8359DD" transform="translate(365,208)"/>
<path d="M0 0 C0.66 0.33 1.32 0.66 2 1 C1.13375 2.2375 1.13375 2.2375 0.25 3.5 C-2.19879739 7.15570468 -4.10791078 11.03466409 -6 15 C-6.33 14.34 -6.66 13.68 -7 13 C-6.690625 12.4225 -6.38125 11.845 -6.0625 11.25 C-4.71375537 8.39383489 -4.85817047 6.12024959 -5 3 C-4.360625 2.690625 -3.72125 2.38125 -3.0625 2.0625 C-1.06389179 1.1654837 -1.06389179 1.1654837 0 0 Z " fill="#815ADA" transform="translate(343,341)"/>
<path d="M0 0 C0.99 0 1.98 0 3 0 C2.91621094 0.65226563 2.83242188 1.30453125 2.74609375 1.9765625 C2.17445896 6.88249144 1.84688018 11.13127185 3 16 C2.34 15.67 1.68 15.34 1 15 C0.33203125 12.890625 0.33203125 12.890625 -0.1875 10.25 C-0.36667969 9.38890625 -0.54585938 8.5278125 -0.73046875 7.640625 C-1.01547015 4.84843739 -0.68655974 2.70728521 0 0 Z " fill="#8258E0" transform="translate(402,236)"/>
<path d="M0 0 C0.66 0.33 1.32 0.66 2 1 C0.5140084 5.59306496 -1.85014682 8.43569245 -5 12 C-5.33 11.34 -5.66 10.68 -6 10 C-4.15885893 6.50818073 -2.18840439 3.28260659 0 0 Z " fill="#7F57E2" transform="translate(101,112)"/>
<path d="M0 0 C3.82669043 3.42388092 5.72278474 6.00724943 7 11 C6.34 11 5.68 11 5 11 C5 10.01 5 9.02 5 8 C3.68 8 2.36 8 1 8 C0.67 7.01 0.34 6.02 0 5 C0.66 5 1.32 5 2 5 C1.34 3.35 0.68 1.7 0 0 Z " fill="#8158E1" transform="translate(100,285)"/>
<path d="M0 0 C-0.33 0.99 -0.66 1.98 -1 3 C-2.0725 3.12375 -3.145 3.2475 -4.25 3.375 C-7.37863615 3.89643936 -9.33480424 4.40088254 -12 6 C-6 -0.15789474 -6 -0.15789474 0 0 Z " fill="#8159E2" transform="translate(85,66)"/>
<path d="M0 0 C0.33 0 0.66 0 1 0 C1.3125 2.6875 1.3125 2.6875 1 6 C-1.6863219 9.28328232 -4.20505691 11.2160524 -8 13 C-7.59007813 12.48050781 -7.18015625 11.96101563 -6.7578125 11.42578125 C-3.92363424 7.7576223 -1.40171967 4.48550294 0 0 Z " fill="#835BE1" transform="translate(98,51)"/>
<path d="M0 0 C0.33 0 0.66 0 1 0 C1.06058594 0.88042969 1.12117188 1.76085937 1.18359375 2.66796875 C1.26738281 3.82941406 1.35117187 4.99085937 1.4375 6.1875 C1.55931641 7.91033203 1.55931641 7.91033203 1.68359375 9.66796875 C1.95403812 12.51598171 2.37521747 15.21210482 3 18 C2.01 18 1.02 18 0 18 C-1.23102992 14.30691024 -0.87175152 11.11949288 -0.5625 7.3125 C-0.51029297 6.61060547 -0.45808594 5.90871094 -0.40429688 5.18554688 C-0.27492135 3.45661946 -0.13817469 1.72824645 0 0 Z " fill="#835AE0" transform="translate(389,109)"/>
<path d="M0 0 C0.99 0.33 1.98 0.66 3 1 C1.73113036 2.12721436 0.45982438 3.25168658 -0.8125 4.375 C-1.52019531 5.00148438 -2.22789062 5.62796875 -2.95703125 6.2734375 C-5 8 -5 8 -8 10 C-8.99 9.67 -9.98 9.34 -11 9 C-10.1646875 8.6596875 -10.1646875 8.6596875 -9.3125 8.3125 C-6.35823409 6.63575448 -4.33152149 4.45423315 -2 2 C-1.34 1.34 -0.68 0.68 0 0 Z " fill="#8259D8" transform="translate(271,381)"/>
<path d="M0 0 C0 0.66 0 1.32 0 2 C-4.98283716 3.14051606 -9.94468132 4.22225866 -15 5 C-12.82813579 2.82813579 -11.50023469 2.3206752 -8.625 1.375 C-7.85414063 1.11460937 -7.08328125 0.85421875 -6.2890625 0.5859375 C-4 0 -4 0 0 0 Z " fill="#835ADA" transform="translate(271,337)"/>
<path d="M0 0 C3 1 3 1 5 4 C2.1875 5.5625 2.1875 5.5625 -1 7 C-1.99 6.67 -2.98 6.34 -4 6 C-3.34 5.67 -2.68 5.34 -2 5 C-1.27840576 3.35636866 -0.60648579 1.68949614 0 0 Z " fill="#8558E9" transform="translate(139,74)"/>
<path d="M0 0 C0 3.93169105 -1.39419615 5.16427228 -4 8 C-4.66 8 -5.32 8 -6 8 C-6.33 8.99 -6.66 9.98 -7 11 C-7.66 10.67 -8.32 10.34 -9 10 C-6.03 6.7 -3.06 3.4 0 0 Z " fill="#8158DB" transform="translate(315,309)"/>
<path d="M0 0 C1.4606285 2.64738916 2 3.89448334 2 7 C-0.31 5.35 -2.62 3.7 -5 2 C-3.68 1.67 -2.36 1.34 -1 1 C-0.67 0.67 -0.34 0.34 0 0 Z " fill="#8259E2" transform="translate(327,97)"/>
<path d="M0 0 C0.33 0.66 0.66 1.32 1 2 C1.66 2 2.32 2 3 2 C3 1.34 3 0.68 3 0 C3.99 0.33 4.98 0.66 6 1 C5.01 1.495 5.01 1.495 4 2 C4.33 2.99 4.66 3.98 5 5 C4.01 5.33 3.02 5.66 2 6 C0 3 0 3 0 0 Z " fill="#8155E6" transform="translate(330,104)"/>
<path d="M0 0 C0.66 0.33 1.32 0.66 2 1 C2 2.65 2 4.3 2 6 C-0.475 5.01 -0.475 5.01 -3 4 C-2.67 3.01 -2.34 2.02 -2 1 C-1.34 0.67 -0.68 0.34 0 0 Z " fill="#8255ED" transform="translate(164,376)"/>
<path d="M0 0 C1.32 0 2.64 0 4 0 C4.33 0.99 4.66 1.98 5 3 C7.00016466 4.20882096 7.00016466 4.20882096 9 5 C8.01 5.495 8.01 5.495 7 6 C4.5249829 4.88568235 2.32116581 3.41849022 0 2 C0 1.34 0 0.68 0 0 Z " fill="#815CDD" transform="translate(51,300)"/>
<path d="M0 0 C0 3.59857954 -0.95830515 5.09451118 -3 8 C-3.66 8 -4.32 8 -5 8 C-3.8141763 4.62496331 -2.72426311 2.35277269 0 0 Z " fill="#8258E1" transform="translate(340,281)"/>
<path d="M0 0 C0.33 0.66 0.66 1.32 1 2 C0.0625 4.125 0.0625 4.125 -1 6 C-1.99 6 -2.98 6 -4 6 C-4.33 6.66 -4.66 7.32 -5 8 C-4.45773019 4.20411134 -2.79872437 2.52788007 0 0 Z " fill="#835DDC" transform="translate(104,43)"/>
<path d="M0 0 C0.33 0 0.66 0 1 0 C0.67 2.97 0.34 5.94 0 9 C-0.33 9 -0.66 9 -1 9 C-1 7.35 -1 5.7 -1 4 C-1.66 4 -2.32 4 -3 4 C-3 3.34 -3 2.68 -3 2 C-2.01 2 -1.02 2 0 2 C0 1.34 0 0.68 0 0 Z " fill="#855CE6" transform="translate(405,254)"/>
<path d="M0 0 C3.36720387 1.39332574 4.9859524 2.9789286 7 6 C6.67 6.66 6.34 7.32 6 8 C1.125 3.375 1.125 3.375 0 0 Z " fill="#815DD8" transform="translate(332,43)"/>
</svg>
